<svg height="64" viewBox="0 0 1920 64" width="1920" xmlns="http://www.w3.org/2000/svg"><path d="m38.4799584 61.3880271c8.9353461-.2398751 39.6193649-5.7270172 44.71671-5.5271213 13.0532015.5097345 25.6466426 1.9989589 38.3999996.239875.799584-.1099427 45.206455-3.5681415 53.72202-6.7764705 2.608642-.9994795 35.061739-1.4292556 37.980219-1.6191567 5.197293-.3598126 51.233316.2298802 63.68683-.7496096 10.414575-.8295679 44.876626-3.498178 52.45268-3.2483082 10.774389.3598126 21.618741-1.7390942 32.443103-2.7285789 3.997918-.3664757 8.015825-.6429984 12.053722-.8295679 12.873295-.6196772 25.806559 0 38.639875-2.1089016 4.707548-.779594 9.634982-.1899011 14.462468-.289849 16.891202-.3498178 33.842373 0 50.673607-1.2793337 18.520354-1.3992712 36.980739-.5497137 55.501093-1.1094222 24.5772-.7396148 48.914524-3.7280583 73.311817-6.5465903 16.76127-1.9289953 33.532535-4.4176991 50.55367-3.6181156 6.446795.3517467 12.912718-.0102645 19.279958-1.0794378 9.994795-1.7690786 19.989589-2.1488808 30.114316-2.3887558 16.5114-.3798022 32.982821-.9994795 49.524206-1.509214 1.998959-.0699635 4.10786-.6896408 5.996877-.2298802 12.053722 2.9984383 24.087454 4.9274336 36.121186 3.9979177 5.996877-.4497657 11.993754-.9095263 18.090578-.049974 4.821278.5683827 9.70302.3455646 14.452473-.6596564 9.455075-1.7590838 18.880167.9994794 28.66507 1.359292 14.892244.5397189 29.834461-.4497657 44.756689-.3897969 27.415721.1199375 54.831442-.1699115 82.257158 0 22.168457.1599167 44.306927 2.1089016 66.485377 1.3692868 15.352-.5097345 30.47412 2.4487246 45.76616 3.1383654 21.3189.9994795 42.60781 2.7585633 63.96668 4.0878709 4.02606.3250034 8.07292.2949028 12.0937-.0899531 28.82499-3.3282666 57.89985-11.4540344 86.69485-15.2320667 8.79965-1.0645792 17.66526-1.4854787 26.52618-1.259344 20.17949.3098386 40.17908-2.4687143 60.2986-2.9484644 4.8075-.1099427 9.595-.7096304 14.36252.9994794 4.10786 1.509214 8.6355-1.0994273 12.87329.5996877 6.25675-2.8884956 12.62343-.3498178 18.99011-.5097345 6.13681-.1499219 19.32994 2.9984383 33.43259 4.2477876 3.18834.289849 17.60083 2.1688704 45.67621 8.5855284 7.70599 1.7590838 9.90484 4.3977095 12.78334 3.3582509 1.96836-.6560116 4.13722-.2100404 5.68704 1.1693909 2.83852 2.238834 5.90692 1.9090058 9.20521 1.2893285 8.34652-1.5588445 16.9348-1.2482189 25.1469.9095263 1.54623.4688328 3.14386.7474104 4.75752.8295679 10.07475.0599688 19.98959.7396148 29.66455 4.1078605 1.38928.4797501 3.14836-.1299323 4.72754-.2098907 1.99896-.0999479 4.54763-.9994794 5.89693-.1399271 6.31671 4.1278501 12.39354.9994795 18.55034.0699636 3.54222-.5783634 7.15202-.6120684 10.70442-.099948 9.37512 1.3692869 18.74024 2.9984383 28.43519.8795419 5.14019-1.1419211 10.49783-.8163759 15.46195.9395107 4.37772 1.749089 12.20364 1.2993233 20.31941 3.4881832.87955.2398751 2.09891 1.1294118 3.21833 1.1893806 12.75336.7196252 21.31889 1.0594482 33.9823 4.3177511 8.4556 2.1788652 29.98438 2.528683 31.16377 2.3287871 4.76751-.8295679 7.99583 1.509214 13.52295.6496617.99948-.1599167 6.69652 2.6086413 10.49454 1.3892764 3.99792-1.2893285 7.77595-.5497137 11.81385.289849 8.64549 1.7690786 17.34096 3.5081729 26.26632 3.598126 4.03519.0383582 8.05518.5006574 11.99375 1.3792816 4.39771.9994795 8.78542.9994795 13.21312 1.169391 9.99479.4797501 19.82967-5.1773035 29.67454-2.9084852 6.45664 1.4992192 13.18314 3.4482041 20.11952 1.8390422 1.37928-.3198334 2.99844.679646 4.58761.9994794 5.89693 1.1593962 11.88381-1.0794378 17.63082.5497137 2.89849.8295679 9.28516-.1099427 10.73441.3698074 2.64862.8695471 13.81281 1.8190526 15.76179 2.2288391v-63.2170744h-1919.02051v63.2670484s10.2046851.4597606 13.462988-.3698074c8.5255596-2.1688704 16.091619-1.2693389 25.0169704-1.5092139z" fill="#fff" fill-rule="evenodd"/></svg>