<svg viewBox="0 0 1919.89 99.5" xmlns="http://www.w3.org/2000/svg"><path d="m1001.89 53.93c2.56.18 79.83-8.32 85.08-6.82 20.82 5.92 27.68 6.66 46 4.71 7.8-.85 15.39 1.75 23.38.94 7.68-.76 15.62.57 23.39 1.49 19.32 2.28 38.57 3.36 57.79-.77 1.93-.42 31.92-4.64 48.53-2.92 18.72 1.94 37.41 3.94 55.86 7.54 6.33 1.24 12.5 0 18.76.24 25.5.92 43.79 9.66 68.63 11.29 16.3 1.08 35.66 4.79 51.78 3.56 8.25-.64 16.67.63 25 1.26 10.91.81 21.91 2.45 32.81 2.55 6.39.07 11.26 4 18.06 3.76 20.71-.85 43.18 1.14 70.81 7.41 6.45 1.47 290.65 11.19 292.12 11.31v-99.48h-1919.89v99.5c8.9 0 28.64-4.37 41.06-5.89 9.88-1.23 19.64-3.24 28.51-8.27 6.06-3.44 12.84-4.3 19.68-4.83 22.92-1.81 45.8-4.16 68.76-5.4 24.63-1.35 49-4.84 73.2-8.94 29.93-5.06 59.94 3.66 90-.3 30.61-4 61.07-1.29 91.69-5.22 41-5.25 82-10.42 123.36-12.67 46.51-2.54 93-4.11 139.55-5.48 10.46-.32 20.95-.07 31.42-.42a115.59 115.59 0 0 1 37.2 4.39c3.64 1.09 7.14 1.74 10.76.72s7.22-1.54 10.85-.59a12.14 12.14 0 0 0 10.51-1.6c3.22-2.27 6.85-2.53 10.51-2.56 11.94-.08 69 1.18 71 1.15 8.37-.11 63.33 8.29 68.32 9 .03 0 56.54-.02 75.51 1.34z" fill="#fff" fill-rule="evenodd"/></svg>