<svg height="30" viewBox="0 0 1920 30" width="1920" xmlns="http://www.w3.org/2000/svg"><path d="m13.62 6c18.2.88 22.58 1.53 48.38 3.52 6.62.5 52.54 6.48 57.72 7.69 15.52 3.62 35.37 7.3 54.12 7.56 27.12.39 55.23 4.46 82.36 4.41 33.27 0 66.55-.74 99.81-1.61 10.87-.3 21.7-2 32.54-3.08 34.95-3.41 69.86-4.26 104.85-7.07s70.05-4.59 105.07-6.86c3.6-.22 7.09-.77 10.6 1 12.56 6.52 25.13 6.92 37.51-.61.52-.31 1.07-.54 1.6-.82 7-3.54 13.55 3.62 21.17.25 6.83-3 14.21-.83 19.91 4.91 1.743581 1.7464231 4.301241 2.4021352 6.67 1.71 2.35-.55 5.06-.12 7.12-1.12 17.61-8.65 36.72-5.75 55.22-7.42 2.977278-.37287388 6.000215-.0791195 8.85.86 3.64 1.39 6.69 2.11 10.1-.48 2.07-1.57 4.65-1 6.92 0 15.11 7 30.41 4.74 45.76 1l-.36.38c12.25.63 24.57-.11 36.73 2.63 7.76 1.73 15.59 1.8 23.09-2 2.148259-1.12910673 4.595509-1.55912343 7-1.23 14.24 2.8 28.4 3.61 42.85 1.28 4.55-.74 9.51 1.8 14.29 1.9 14.5.3 29 .22 43.53.07 2.28 0 4.83-2.14 6.8-1.61 13.66 3.7 27.73.37 41.43 2.81 15.52 2.76 31.44 2 46.87 4.34 21 3.16 42.1-.69 62.94 3 2.22.4 4.66-.16 7-.57 3-.52 5.89-2.05 8.78-1.91 27.22 1.27 54.2-4.37 81.47-2.24 13 1 48.33 5 48.9 5 7.34.26 30.95 3.08 36.72 1.55 3.44-.92 6.62-2.44 10.5-.84 6.35 2.59 12.84 1.6 19.58.46 10.1-1.69 20.46-1.84 30.71-2.61 1.2-.09 25.44 2.38 36.34 3.2s21.82.06 32.69-.7c26.58-1.88 91.72.18 97.74-.53 30.65-3.63 113-8.14 116.38-8.59 19.16-2.48 57.66-5.16 70-6.34 9.59-.91 17.35 2.77 21.65 3.66 10 2.09 14.31.5 21.07-1.05 9.16-2.12 17.83-8 26.91-7.26 6.01906.42435641 12.06614.20982578 18.04-.64 3.73-.5 32.55-.76 41.35 1.21 12.81 2.88 25.95 1.86 39 2.15v-5.36h-1919.9v5.36c4.54.16 9.08.37333333 13.62.64z" fill="#fff" fill-rule="evenodd"/></svg>